<?xml version="1.0" standalone="no"?>
<!DOCTYPE svg PUBLIC "-//W3C//DTD SVG 20010904//EN"
 "http://www.w3.org/TR/2001/REC-SVG-20010904/DTD/svg10.dtd">
<svg version="1.0" xmlns="http://www.w3.org/2000/svg"
 width="1400.000000pt" height="933.000000pt" viewBox="0 0 1400.000000 933.000000"
 preserveAspectRatio="xMidYMid meet">

<g transform="translate(0.000000,933.000000) scale(0.100000,-0.100000)"
fill="#000000" stroke="none">
<path d="M6806 7830 c-167 -43 -342 -153 -441 -278 -38 -47 -116 -174 -127
-205 -2 -4 -35 6 -75 23 -39 16 -115 42 -169 56 -89 24 -111 26 -239 22 -128
-4 -147 -7 -220 -36 -229 -90 -391 -289 -461 -562 -15 -59 -19 -110 -19 -235
1 -187 12 -239 82 -385 38 -80 59 -109 132 -181 69 -69 103 -94 171 -128 133
-65 220 -84 385 -84 77 0 149 2 160 4 20 4 20 -4 30 -354 8 -299 12 -359 25
-367 16 -10 116 -25 126 -19 7 4 6 61 -5 614 l-6 310 -140 6 c-209 10 -327 45
-447 134 -269 199 -288 657 -36 902 177 171 409 206 691 102 45 -17 89 -33 99
-35 12 -4 22 6 37 41 36 81 109 182 179 245 134 124 279 180 461 180 128 0
196 -16 311 -72 147 -71 295 -240 347 -394 9 -27 17 -50 18 -51 1 -2 44 7 96
19 137 32 381 32 492 0 210 -60 371 -192 466 -380 145 -288 102 -642 -105
-870 -160 -177 -378 -263 -666 -263 l-138 0 0 -250 c0 -172 3 -249 11 -249 6
0 40 8 75 17 l64 17 0 159 0 159 103 -6 c193 -13 386 21 506 90 254 146 400
432 401 780 0 337 -127 641 -345 827 -206 176 -470 231 -777 161 -51 -12 -73
-13 -76 -5 -2 6 -23 50 -46 98 -106 216 -281 365 -513 435 -102 30 -312 34
-417 8z"/>
<path d="M7266 6878 c-65 -87 -97 -274 -99 -583 -1 -204 1 -230 27 -355 37
-179 37 -349 0 -860 -7 -99 1 -117 59 -130 47 -10 103 4 117 30 7 14 4 88 -11
257 -26 284 -29 525 -10 884 19 375 20 751 2 772 -22 27 -57 21 -85 -15z m54
-1403 c0 -44 7 -156 15 -250 11 -124 12 -179 4 -202 -6 -18 -14 -33 -18 -33
-9 0 -22 357 -20 534 1 86 3 102 10 71 4 -22 8 -76 9 -120z"/>
<path d="M6626 6892 c-6 -11 -37 -381 -38 -471 -2 -77 7 -96 74 -169 26 -30
51 -65 54 -79 8 -32 1 -231 -26 -750 -19 -366 -20 -405 -5 -432 29 -58 78 -66
127 -22 l32 28 -12 324 c-7 178 -17 438 -23 576 -6 139 -8 264 -5 277 3 13 31
54 61 91 30 38 57 81 61 100 3 18 1 72 -5 121 -5 49 -15 158 -22 241 -12 142
-20 185 -33 172 -3 -3 -9 -87 -12 -187 -6 -159 -13 -206 -29 -190 -2 2 -8 86
-12 188 -5 121 -12 185 -19 187 -8 3 -14 -52 -19 -187 -4 -104 -11 -190 -15
-190 -14 0 -20 31 -21 118 -2 146 -13 255 -26 260 -10 3 -13 -38 -13 -182 0
-179 -6 -214 -31 -189 -5 5 -12 89 -15 186 -7 162 -13 203 -28 179z m269 -538
c-2 -12 -20 -40 -37 -61 -18 -21 -41 -50 -51 -64 l-18 -24 7 25 c3 14 20 43
37 64 44 56 56 98 59 206 l2 95 4 -110 c1 -60 0 -120 -3 -131z m-95 -928 c9
-293 9 -385 0 -407 -7 -16 -16 -29 -21 -29 -5 0 -9 60 -9 133 0 157 12 688 16
685 1 -2 7 -173 14 -382z"/>
<path d="M4920 5201 c-289 -116 -432 -186 -657 -318 -504 -294 -904 -648
-1196 -1057 -14 -20 10 -6 79 46 296 223 634 420 1014 590 199 90 701 268 841
298 l55 12 -4 145 c-4 127 4 233 25 321 3 12 1 22 -3 22 -5 0 -74 -27 -154
-59z"/>
<path d="M8950 5253 c0 -3 7 -45 16 -92 12 -63 15 -126 12 -237 l-4 -151 71
-18 c108 -27 365 -111 520 -170 493 -187 919 -417 1304 -703 112 -82 114 -83
83 -41 -106 144 -360 435 -413 472 -11 8 -43 37 -72 64 -79 75 -267 224 -402
317 -298 207 -629 381 -1012 530 -99 39 -103 40 -103 29z"/>
<path d="M6715 4822 c-125 -47 -226 -118 -395 -278 -213 -202 -263 -232 -382
-226 -35 2 -87 50 -89 82 -5 61 2 82 40 122 35 38 43 42 99 46 34 2 75 0 91
-6 44 -15 38 -1 -11 31 -68 44 -140 61 -204 49 -154 -31 -254 -142 -224 -250
42 -156 251 -262 518 -262 237 0 498 78 760 227 l95 53 61 -34 c187 -105 348
-172 509 -212 138 -35 347 -44 462 -20 291 60 439 274 288 418 -85 81 -233
106 -328 55 -78 -41 -117 -79 -59 -57 43 17 126 12 161 -10 121 -73 89 -235
-46 -233 -95 1 -173 53 -376 248 -139 135 -271 224 -384 260 -68 22 -200 17
-250 -9 -33 -17 -36 -17 -70 0 -54 26 -201 30 -266 6z m221 -23 c41 -11 59
-28 32 -30 -17 -2 -14 -2 -78 21 -43 15 -49 19 -27 20 16 0 48 -5 73 -11z
m368 -19 c97 -33 170 -84 304 -211 94 -89 108 -121 16 -36 -136 124 -286 220
-404 257 l-25 8 26 1 c14 1 52 -8 83 -19z m-389 -386 c-65 -52 -374 -181 -475
-198 -19 -4 15 11 75 32 102 35 263 110 345 160 19 12 44 22 55 22 l20 -1 -20
-15z"/>
<path d="M4910 4441 c-623 -130 -1166 -317 -1565 -541 -127 -71 -279 -169
-272 -176 2 -2 41 11 88 30 491 197 1324 398 1974 477 146 17 142 13 97 86
-21 33 -48 84 -61 112 -20 42 -29 51 -50 50 -14 0 -109 -17 -211 -38z"/>
<path d="M8866 4442 c-10 -22 -37 -72 -61 -113 -24 -40 -43 -75 -41 -77 2 -1
111 -18 242 -37 423 -61 793 -136 1169 -236 196 -52 574 -175 704 -228 41 -17
76 -30 78 -27 4 4 -131 95 -223 150 -101 59 -398 200 -549 259 -248 97 -536
185 -855 261 -158 38 -399 86 -429 86 -11 0 -24 -14 -35 -38z"/>
<path d="M6624 4117 c22 -33 104 -92 161 -115 79 -33 134 -44 220 -45 95 -1
168 15 251 54 59 28 163 113 152 124 -3 4 -53 -1 -111 -9 -137 -21 -438 -21
-571 -1 -125 19 -119 19 -102 -8z m700 -28 c-46 -51 -189 -110 -262 -108 -32
0 -28 3 24 14 67 14 143 50 189 89 17 14 39 25 49 26 19 0 19 0 0 -21z"/>
<path d="M3515 3529 c-258 -43 -416 -255 -377 -506 15 -93 49 -166 107 -226
97 -102 208 -147 359 -147 159 1 254 37 352 134 102 103 139 213 123 366 -28
257 -280 427 -564 379z m192 -261 c97 -64 112 -238 30 -326 -68 -73 -187 -73
-253 0 -72 78 -79 191 -19 278 56 80 162 101 242 48z"/>
<path d="M5230 3530 c-199 -35 -343 -176 -371 -363 -43 -287 156 -517 446
-517 129 0 247 46 353 139 32 28 25 44 -62 130 l-74 74 -24 -23 c-38 -37 -118
-70 -171 -70 -124 0 -205 116 -176 251 13 62 77 133 129 144 71 16 180 -26
226 -87 l18 -24 83 95 82 96 -42 39 c-53 49 -143 92 -233 111 -75 16 -114 17
-184 5z"/>
<path d="M11228 3530 c-162 -29 -292 -124 -349 -257 -45 -102 -43 -264 4 -367
32 -69 113 -156 182 -196 139 -80 363 -81 507 -3 230 125 298 451 136 655 -48
61 -141 125 -214 148 -76 23 -199 33 -266 20z m173 -250 c24 -13 51 -39 70
-67 25 -40 29 -57 29 -115 0 -109 -50 -185 -135 -207 -118 -30 -225 67 -225
203 0 151 137 249 261 186z"/>
<path d="M2232 3253 l3 -278 140 0 140 0 3 168 2 167 53 0 c114 0 186 -45 212
-133 26 -89 15 -173 -32 -236 -43 -56 -68 -61 -308 -61 l-215 0 0 -110 0 -110
224 0 c318 0 408 23 518 131 86 85 124 197 116 335 -12 187 -113 318 -291 377
-54 18 -92 21 -315 25 l-252 4 2 -279z"/>
<path d="M4170 3095 l0 -435 325 0 326 0 -3 118 -3 117 -175 2 -175 2 -5 313
-5 313 -142 3 -143 3 0 -436z"/>
<path d="M5750 3095 l0 -435 375 0 375 0 0 105 0 105 -227 2 -228 3 -3 52 -3
53 198 2 198 3 3 108 3 107 -201 0 -200 0 0 55 0 55 220 0 220 0 0 110 0 110
-365 0 -365 0 0 -435z"/>
<path d="M7177 3523 c-3 -5 -59 -136 -125 -293 -190 -451 -234 -554 -239 -562
-2 -5 63 -8 144 -8 l148 0 101 283 c56 155 105 282 109 282 8 0 83 -200 84
-222 1 -8 -13 -13 -38 -13 l-38 0 -31 -87 c-17 -49 -34 -96 -37 -105 -7 -17 2
-18 108 -18 l115 0 22 -60 22 -60 149 0 c82 0 149 3 149 6 0 4 -34 90 -76 193
-42 102 -113 278 -159 391 -46 113 -91 222 -99 243 l-16 37 -145 0 c-79 0
-146 -3 -148 -7z"/>
<path d="M7880 3095 l0 -435 119 0 c118 0 119 0 125 25 3 13 6 115 5 226 0
110 1 202 3 205 2 2 20 -40 40 -94 82 -217 102 -267 113 -275 5 -4 48 -6 95
-5 l85 3 67 175 c36 96 71 182 77 190 7 10 10 -56 10 -217 l1 -233 125 0 125
0 0 435 0 435 -153 0 -153 0 -94 -225 c-52 -124 -97 -222 -101 -218 -4 5 -48
105 -97 223 l-90 215 -151 3 -151 3 0 -436z"/>
<path d="M9120 3138 c-91 -215 -173 -411 -182 -435 l-18 -44 148 3 147 3 20
58 20 57 165 0 165 0 20 -57 20 -58 154 -3 c121 -2 152 0 148 10 -3 7 -43 108
-90 223 -47 116 -118 289 -157 385 -39 96 -78 192 -87 213 l-16 37 -146 0
-146 0 -165 -392z m356 -41 c19 -55 34 -102 34 -104 0 -2 -40 -3 -90 -3 l-89
0 34 93 c59 162 55 155 67 134 5 -10 25 -64 44 -120z"/>
<path d="M9990 3095 l0 -435 140 0 140 0 0 110 c0 118 -3 112 55 112 14 0 33
0 43 -1 12 -1 32 -34 67 -111 l49 -110 158 0 c87 0 158 3 158 8 -1 4 -36 66
-80 137 l-79 130 40 39 c53 52 76 99 89 181 18 113 -12 216 -82 281 -83 78
-158 94 -460 94 l-238 0 0 -435z m485 190 c20 -20 25 -34 25 -77 -1 -87 -30
-108 -149 -108 l-81 0 0 105 0 105 90 0 c83 0 93 -2 115 -25z"/>
<path d="M5840 2126 l0 -216 70 0 69 0 3 58 3 57 75 6 c84 6 112 19 142 67 29
47 30 131 2 169 -47 62 -63 68 -220 71 l-144 4 0 -216z m240 79 c17 -45 -10
-75 -69 -75 -30 0 -31 1 -31 50 l0 50 45 0 c39 0 47 -3 55 -25z"/>
<path d="M6362 2128 l3 -213 70 0 70 0 3 213 2 212 -75 0 -75 0 2 -212z"/>
<path d="M6650 2285 l0 -55 95 0 c52 0 95 -3 95 -6 0 -3 -43 -53 -95 -111 -93
-102 -95 -106 -95 -154 l0 -49 200 0 200 0 0 55 0 55 -100 0 c-55 0 -100 2
-100 5 0 3 45 56 100 117 94 105 100 114 100 155 l0 43 -200 0 -200 0 0 -55z"/>
<path d="M7180 2285 l0 -54 95 -3 94 -3 -99 -110 c-96 -106 -99 -112 -100
-158 l0 -47 203 2 202 3 3 52 3 52 -107 3 -107 3 102 111 c97 108 101 114 101
158 l0 46 -195 0 -195 0 0 -55z"/>
<path d="M7851 2318 c-5 -13 -45 -106 -90 -207 -45 -101 -81 -187 -81 -192 0
-5 32 -9 71 -9 69 0 71 1 82 30 l11 30 86 0 86 0 11 -30 c11 -30 12 -30 88
-30 68 0 76 2 71 18 -3 9 -43 105 -89 212 l-83 195 -77 3 c-72 3 -78 1 -86
-20z m119 -230 c0 -5 -18 -8 -40 -8 -22 0 -40 2 -40 4 0 2 6 19 14 37 7 19 16
43 20 54 6 17 11 12 27 -30 10 -27 19 -53 19 -57z"/>
<path d="M2210 1945 l0 -305 1615 0 1615 0 0 305 0 305 -1615 0 -1615 0 0
-305z"/>
<path d="M8560 1945 l0 -305 1620 0 1620 0 0 305 0 305 -1620 0 -1620 0 0
-305z"/>
<path d="M1486 2068 c3 -7 27 -31 53 -53 148 -124 241 -208 241 -216 0 -5 -12
-22 -27 -37 -16 -16 -84 -85 -152 -155 l-125 -127 482 0 482 0 0 45 0 45 -150
0 -150 0 -2 253 -3 252 -327 3 c-261 2 -326 0 -322 -10z"/>
<path d="M11868 1828 l-3 -253 -147 -3 -148 -3 0 -44 0 -45 482 0 483 0 -159
159 -159 159 38 34 c21 18 43 38 49 43 6 6 59 53 119 104 59 51 107 94 107 97
0 2 -148 4 -330 4 l-330 0 -2 -252z"/>
<path d="M5825 1808 c-3 -8 -4 -66 -3 -129 l3 -114 50 -3 c78 -5 154 7 176 29
26 26 25 74 -2 93 -20 14 -20 16 -5 31 22 23 20 58 -5 81 -28 25 -205 35 -214
12z m143 -70 c3 -14 -3 -18 -27 -18 -29 0 -41 17 -24 34 13 13 48 1 51 -16z
m10 -96 c2 -8 -10 -12 -32 -12 -24 0 -36 5 -36 14 0 27 59 25 68 -2z"/>
<path d="M6181 1803 c-19 -37 -101 -226 -101 -234 0 -5 18 -9 40 -9 29 0 42 5
50 20 8 16 21 20 58 20 36 0 50 -5 60 -20 9 -15 23 -20 52 -20 22 0 40 3 40 7
0 4 -23 63 -51 130 l-52 123 -43 0 c-31 0 -46 -5 -53 -17z m63 -105 c9 -35 8
-38 -18 -38 -23 0 -24 2 -15 30 13 36 24 38 33 8z"/>
<path d="M6400 1690 l0 -131 43 3 c39 3 42 5 45 36 4 43 28 42 49 -3 15 -32
20 -35 60 -35 48 0 51 6 24 51 -20 32 -20 33 0 57 26 34 24 85 -5 119 -23 26
-29 28 -120 31 l-96 4 0 -132z m156 45 c9 -21 -14 -45 -42 -45 -20 0 -24 5
-24 30 0 27 3 30 30 30 18 0 33 -6 36 -15z"/>
<path d="M6806 1805 c-22 -23 -28 -52 -16 -76 10 -17 8 -25 -8 -42 -36 -39
-37 -64 -3 -97 32 -32 68 -38 117 -20 20 8 31 7 43 -4 14 -13 19 -12 38 4 20
16 21 19 7 31 -9 8 -13 22 -10 38 4 20 0 30 -18 43 -21 15 -25 15 -30 3 -3 -9
-12 -12 -21 -8 -14 5 -11 11 14 34 36 32 39 61 11 89 -25 25 -101 28 -124 5z
m66 -57 c-15 -15 -26 -4 -18 18 5 13 9 15 18 6 9 -9 9 -15 0 -24z m-17 -108
c18 -19 17 -20 -3 -20 -15 0 -22 6 -22 20 0 11 2 20 3 20 2 0 12 -9 22 -20z"/>
<path d="M7100 1689 l0 -130 43 3 c42 3 42 3 45 46 l3 42 55 0 c53 0 54 0 54
30 0 30 -1 30 -55 30 -48 0 -55 2 -55 20 0 18 7 20 60 20 l60 0 0 35 0 35
-105 0 -105 0 0 -131z"/>
<path d="M7405 1810 c-55 -22 -90 -95 -74 -154 35 -127 242 -124 280 4 10 33
9 44 -10 82 -14 30 -32 50 -56 61 -37 18 -106 21 -140 7z m96 -70 c14 -8 19
-21 19 -51 0 -32 -4 -41 -24 -51 -31 -13 -50 -6 -71 26 -14 20 -14 29 -4 48
20 39 44 47 80 28z"/>
<path d="M7694 1801 c-46 -28 -64 -59 -64 -112 0 -105 110 -160 216 -109 68
33 91 102 56 169 -33 66 -141 93 -208 52z m122 -77 c23 -34 9 -75 -28 -88 -53
-19 -91 52 -51 96 23 26 59 23 79 -8z"/>
<path d="M7944 1807 c-2 -7 -3 -65 -2 -128 l3 -114 87 1 c63 1 94 5 112 18 83
54 78 174 -8 216 -51 24 -183 29 -192 7z m164 -89 c20 -41 -2 -82 -46 -86
l-32 -3 0 61 0 61 32 -3 c24 -2 36 -10 46 -30z"/>
</g>
</svg>
